<svg xmlns="http://www.w3.org/2000/svg" xmlns:xlink="http://www.w3.org/1999/xlink" width="500" zoomAndPan="magnify" viewBox="0 0 375 374.999991" height="500" preserveAspectRatio="xMidYMid meet" version="1.0"><defs><g/><clipPath id="9b327275ad"><path d="M 182.1875 37.503906 L 192.425781 37.503906 L 192.425781 343.09375 L 182.1875 343.09375 Z M 182.1875 37.503906 " clip-rule="nonzero"/></clipPath></defs><g clip-path="url(#9b327275ad)"><path fill="#ffffff" d="M 229.855469 37.503906 L 229.855469 343.226562 L 146.0625 343.226562 L 146.0625 37.503906 Z M 229.855469 37.503906 " fill-opacity="1" fill-rule="nonzero"/></g><g fill="#69c58f" fill-opacity="0.302"><g transform="translate(30.544562, 246.866548)"><g><path d="M 101.84375 -55.46875 C 101.84375 -37.707031 96.953125 -24.019531 87.171875 -14.40625 C 77.398438 -4.800781 63.65625 0 45.9375 0 L 11.5 0 L 11.5 -106.4375 L 48.34375 -106.4375 C 65.425781 -106.4375 78.613281 -102.066406 87.90625 -93.328125 C 97.195312 -84.585938 101.84375 -71.96875 101.84375 -55.46875 Z M 72 -54.453125 C 72 -64.210938 70.066406 -71.441406 66.203125 -76.140625 C 62.347656 -80.847656 56.488281 -83.203125 48.625 -83.203125 L 40.265625 -83.203125 L 40.265625 -23.59375 L 46.671875 -23.59375 C 55.398438 -23.59375 61.800781 -26.125 65.875 -31.1875 C 69.957031 -36.257812 72 -44.015625 72 -54.453125 Z M 72 -54.453125 "/></g></g></g><g fill="#69c58f" fill-opacity="0.502"><g transform="translate(43.405211, 246.866548)"><g><path d="M 101.84375 -55.46875 C 101.84375 -37.707031 96.953125 -24.019531 87.171875 -14.40625 C 77.398438 -4.800781 63.65625 0 45.9375 0 L 11.5 0 L 11.5 -106.4375 L 48.34375 -106.4375 C 65.425781 -106.4375 78.613281 -102.066406 87.90625 -93.328125 C 97.195312 -84.585938 101.84375 -71.96875 101.84375 -55.46875 Z M 72 -54.453125 C 72 -64.210938 70.066406 -71.441406 66.203125 -76.140625 C 62.347656 -80.847656 56.488281 -83.203125 48.625 -83.203125 L 40.265625 -83.203125 L 40.265625 -23.59375 L 46.671875 -23.59375 C 55.398438 -23.59375 61.800781 -26.125 65.875 -31.1875 C 69.957031 -36.257812 72 -44.015625 72 -54.453125 Z M 72 -54.453125 "/></g></g></g><g fill="#ffffff" fill-opacity="1"><g transform="translate(56.265861, 246.866548)"><g><path d="M 101.84375 -55.46875 C 101.84375 -37.707031 96.953125 -24.019531 87.171875 -14.40625 C 77.398438 -4.800781 63.65625 0 45.9375 0 L 11.5 0 L 11.5 -106.4375 L 48.34375 -106.4375 C 65.425781 -106.4375 78.613281 -102.066406 87.90625 -93.328125 C 97.195312 -84.585938 101.84375 -71.96875 101.84375 -55.46875 Z M 72 -54.453125 C 72 -64.210938 70.066406 -71.441406 66.203125 -76.140625 C 62.347656 -80.847656 56.488281 -83.203125 48.625 -83.203125 L 40.265625 -83.203125 L 40.265625 -23.59375 L 46.671875 -23.59375 C 55.398438 -23.59375 61.800781 -26.125 65.875 -31.1875 C 69.957031 -36.257812 72 -44.015625 72 -54.453125 Z M 72 -54.453125 "/></g></g></g><path stroke-linecap="butt" transform="matrix(1.428553, 0, 0, 1.428553, 218.873414, 90.296353)" fill="none" stroke-linejoin="miter" d="M 46.423188 108.001354 L 27.107316 108.001354 L 27.107316 52.301424 L 9.650843 52.301424 L 9.650843 36.507472 L 63.833176 36.507472 L 63.833176 52.301424 L 46.423188 52.301424 Z M 46.423188 108.001354 " stroke="#ffffff" stroke-width="3.129969" stroke-opacity="1" stroke-miterlimit="4"/></svg>